<?xml version="1.0" encoding="UTF-8" standalone="no"?><!DOCTYPE svg PUBLIC "-//W3C//DTD SVG 1.1//EN" "http://www.w3.org/Graphics/SVG/1.1/DTD/svg11.dtd"><svg width="100%" height="100%" viewBox="0 0 553 553" version="1.1" xmlns="http://www.w3.org/2000/svg" xmlns:xlink="http://www.w3.org/1999/xlink" xml:space="preserve" xmlns:serif="http://www.serif.com/" style="fill-rule:evenodd;clip-rule:evenodd;stroke-linejoin:round;stroke-miterlimit:1.5;"><path d="M552.569,138.142l0,276.284c0,76.243 -61.899,138.142 -138.142,138.142l-276.284,0c-76.243,0 -138.142,-61.899 -138.142,-138.142l0,-276.284c0,-76.243 61.899,-138.142 138.142,-138.142l276.284,0c76.243,0 138.142,61.899 138.142,138.142Z" style="fill:#59b6d6;"/><g id="Smiley"><path d="M156.51,386.583c27.947,19.832 71.996,35.932 119.775,35.932c47.779,0 91.827,-16.101 119.775,-35.932c0,66.106 -53.669,119.775 -119.775,119.775c-66.106,0 -119.775,-53.669 -119.775,-119.775Z"/><path d="M156.51,386.583c27.947,19.832 71.996,35.932 119.775,35.932c47.779,0 91.827,-16.101 119.775,-35.932c0,66.106 -53.669,119.775 -119.775,119.775c-66.106,0 -119.775,-53.669 -119.775,-119.775Z" style="fill:#fff;"/><g><path d="M389.309,66.806c0,0 -7.856,0.004 -18.972,0.01c-44.399,0.024 -82.708,31.154 -91.816,74.609c-19.035,91.091 -41.517,208.473 -122.42,208.473c-29.315,0 -48.151,-12.249 -60.054,-30.02c-17.53,-26.08 -19.227,-59.707 -4.411,-87.419c14.815,-27.712 43.721,-44.979 75.145,-44.888c42.297,-0.011 74.591,0.027 140.872,-0.103" style="fill:none;stroke:#fff;stroke-width:50px;"/><path d="M414.715,131.218l56.25,56.25l-56.25,56.25" style="fill:none;stroke:#fff;stroke-width:50px;stroke-linecap:round;stroke-linejoin:miter;stroke-miterlimit:10;"/><path d="M307.652,187.468l163.314,0" style="fill:none;stroke:#fff;stroke-width:50px;stroke-linecap:round;"/></g></g></svg>